<mxfile host="app.diagrams.net" agent="Mozilla/5.0 (Windows NT 10.0; Win64; x64) AppleWebKit/537.36 (KHTML, like Gecko) Chrome/135.0.0.0 Safari/537.36 Edg/135.0.0.0" version="26.2.14">
  <diagram name="1" id="9HpApjE63F462VNOB9TF">
    <mxGraphModel dx="988" dy="604" grid="1" gridSize="10" guides="1" tooltips="1" connect="1" arrows="1" fold="1" page="1" pageScale="1" pageWidth="850" pageHeight="1100" math="0" shadow="0">
      <root>
        <mxCell id="0" />
        <mxCell id="1" parent="0" />
        <mxCell id="uyTtBoazdgsakhpWWEjb-32" style="edgeStyle=orthogonalEdgeStyle;rounded=0;orthogonalLoop=1;jettySize=auto;html=1;exitX=0.5;exitY=1;exitDx=0;exitDy=0;entryX=1;entryY=0.5;entryDx=0;entryDy=0;fillColor=#dae8fc;strokeColor=#6c8ebf;" edge="1" parent="1" source="uyTtBoazdgsakhpWWEjb-3" target="uyTtBoazdgsakhpWWEjb-19">
          <mxGeometry relative="1" as="geometry" />
        </mxCell>
        <mxCell id="uyTtBoazdgsakhpWWEjb-33" style="edgeStyle=orthogonalEdgeStyle;rounded=0;orthogonalLoop=1;jettySize=auto;html=1;exitX=0.5;exitY=1;exitDx=0;exitDy=0;entryX=0;entryY=0.5;entryDx=0;entryDy=0;fillColor=#f8cecc;strokeColor=#b85450;" edge="1" parent="1" source="uyTtBoazdgsakhpWWEjb-3" target="uyTtBoazdgsakhpWWEjb-27">
          <mxGeometry relative="1" as="geometry" />
        </mxCell>
        <mxCell id="uyTtBoazdgsakhpWWEjb-3" value="load balancer" style="rounded=0;whiteSpace=wrap;html=1;" vertex="1" parent="1">
          <mxGeometry x="440" y="120" width="120" height="60" as="geometry" />
        </mxCell>
        <mxCell id="uyTtBoazdgsakhpWWEjb-7" value="Region 1 (primary)" style="rounded=0;whiteSpace=wrap;html=1;fillColor=none;labelPosition=center;verticalLabelPosition=top;align=center;verticalAlign=bottom;" vertex="1" parent="1">
          <mxGeometry x="110" y="220" width="370" height="390" as="geometry" />
        </mxCell>
        <mxCell id="uyTtBoazdgsakhpWWEjb-8" value="AZ 1 (primary)" style="rounded=0;whiteSpace=wrap;html=1;labelPosition=center;verticalLabelPosition=top;align=center;verticalAlign=bottom;fillColor=none;" vertex="1" parent="1">
          <mxGeometry x="130" y="350" width="150" height="240" as="geometry" />
        </mxCell>
        <mxCell id="uyTtBoazdgsakhpWWEjb-9" value="AZ 2 (secondary)" style="rounded=0;whiteSpace=wrap;html=1;labelPosition=center;verticalLabelPosition=top;align=center;verticalAlign=bottom;fillColor=none;" vertex="1" parent="1">
          <mxGeometry x="320" y="350" width="140" height="240" as="geometry" />
        </mxCell>
        <mxCell id="uyTtBoazdgsakhpWWEjb-1" value="service" style="rounded=0;whiteSpace=wrap;html=1;" vertex="1" parent="1">
          <mxGeometry x="330" y="370" width="120" height="60" as="geometry" />
        </mxCell>
        <mxCell id="uyTtBoazdgsakhpWWEjb-4" value="service" style="rounded=0;whiteSpace=wrap;html=1;" vertex="1" parent="1">
          <mxGeometry x="145" y="370" width="120" height="60" as="geometry" />
        </mxCell>
        <mxCell id="uyTtBoazdgsakhpWWEjb-10" value="" style="shape=cylinder3;whiteSpace=wrap;html=1;boundedLbl=1;backgroundOutline=1;size=15;" vertex="1" parent="1">
          <mxGeometry x="175" y="480" width="60" height="80" as="geometry" />
        </mxCell>
        <mxCell id="uyTtBoazdgsakhpWWEjb-11" value="" style="shape=cylinder3;whiteSpace=wrap;html=1;boundedLbl=1;backgroundOutline=1;size=15;" vertex="1" parent="1">
          <mxGeometry x="360" y="480" width="60" height="80" as="geometry" />
        </mxCell>
        <mxCell id="uyTtBoazdgsakhpWWEjb-34" style="edgeStyle=orthogonalEdgeStyle;rounded=0;orthogonalLoop=1;jettySize=auto;html=1;exitX=0.5;exitY=1;exitDx=0;exitDy=0;entryX=1;entryY=0.5;entryDx=0;entryDy=0;fillColor=#dae8fc;strokeColor=#6c8ebf;" edge="1" parent="1" source="uyTtBoazdgsakhpWWEjb-19" target="uyTtBoazdgsakhpWWEjb-4">
          <mxGeometry relative="1" as="geometry" />
        </mxCell>
        <mxCell id="uyTtBoazdgsakhpWWEjb-35" style="edgeStyle=orthogonalEdgeStyle;rounded=0;orthogonalLoop=1;jettySize=auto;html=1;exitX=0.5;exitY=1;exitDx=0;exitDy=0;entryX=0;entryY=0.5;entryDx=0;entryDy=0;fillColor=#f8cecc;strokeColor=#b85450;" edge="1" parent="1" source="uyTtBoazdgsakhpWWEjb-19" target="uyTtBoazdgsakhpWWEjb-1">
          <mxGeometry relative="1" as="geometry" />
        </mxCell>
        <mxCell id="uyTtBoazdgsakhpWWEjb-19" value="load balancer" style="rounded=0;whiteSpace=wrap;html=1;" vertex="1" parent="1">
          <mxGeometry x="240" y="240" width="120" height="60" as="geometry" />
        </mxCell>
        <mxCell id="uyTtBoazdgsakhpWWEjb-20" value="Region 2 (secondary)" style="rounded=0;whiteSpace=wrap;html=1;fillColor=none;labelPosition=center;verticalLabelPosition=top;align=center;verticalAlign=bottom;" vertex="1" parent="1">
          <mxGeometry x="540" y="220" width="370" height="390" as="geometry" />
        </mxCell>
        <mxCell id="uyTtBoazdgsakhpWWEjb-21" value="AZ 1 (secondary)" style="rounded=0;whiteSpace=wrap;html=1;labelPosition=center;verticalLabelPosition=top;align=center;verticalAlign=bottom;fillColor=none;" vertex="1" parent="1">
          <mxGeometry x="560" y="350" width="150" height="240" as="geometry" />
        </mxCell>
        <mxCell id="uyTtBoazdgsakhpWWEjb-22" value="AZ 2 (secondary)" style="rounded=0;whiteSpace=wrap;html=1;labelPosition=center;verticalLabelPosition=top;align=center;verticalAlign=bottom;fillColor=none;" vertex="1" parent="1">
          <mxGeometry x="750" y="350" width="140" height="240" as="geometry" />
        </mxCell>
        <mxCell id="uyTtBoazdgsakhpWWEjb-23" value="service" style="rounded=0;whiteSpace=wrap;html=1;" vertex="1" parent="1">
          <mxGeometry x="760" y="370" width="120" height="60" as="geometry" />
        </mxCell>
        <mxCell id="uyTtBoazdgsakhpWWEjb-24" value="service" style="rounded=0;whiteSpace=wrap;html=1;" vertex="1" parent="1">
          <mxGeometry x="575" y="370" width="120" height="60" as="geometry" />
        </mxCell>
        <mxCell id="uyTtBoazdgsakhpWWEjb-25" value="" style="shape=cylinder3;whiteSpace=wrap;html=1;boundedLbl=1;backgroundOutline=1;size=15;" vertex="1" parent="1">
          <mxGeometry x="605" y="480" width="60" height="80" as="geometry" />
        </mxCell>
        <mxCell id="uyTtBoazdgsakhpWWEjb-26" value="" style="shape=cylinder3;whiteSpace=wrap;html=1;boundedLbl=1;backgroundOutline=1;size=15;" vertex="1" parent="1">
          <mxGeometry x="790" y="480" width="60" height="80" as="geometry" />
        </mxCell>
        <mxCell id="uyTtBoazdgsakhpWWEjb-42" style="edgeStyle=orthogonalEdgeStyle;rounded=0;orthogonalLoop=1;jettySize=auto;html=1;exitX=0.5;exitY=1;exitDx=0;exitDy=0;entryX=1;entryY=0.5;entryDx=0;entryDy=0;fillColor=#f8cecc;strokeColor=#b85450;" edge="1" parent="1" source="uyTtBoazdgsakhpWWEjb-27" target="uyTtBoazdgsakhpWWEjb-24">
          <mxGeometry relative="1" as="geometry" />
        </mxCell>
        <mxCell id="uyTtBoazdgsakhpWWEjb-43" style="edgeStyle=orthogonalEdgeStyle;rounded=0;orthogonalLoop=1;jettySize=auto;html=1;exitX=0.5;exitY=1;exitDx=0;exitDy=0;entryX=0;entryY=0.5;entryDx=0;entryDy=0;fillColor=#f8cecc;strokeColor=#b85450;" edge="1" parent="1" source="uyTtBoazdgsakhpWWEjb-27" target="uyTtBoazdgsakhpWWEjb-23">
          <mxGeometry relative="1" as="geometry" />
        </mxCell>
        <mxCell id="uyTtBoazdgsakhpWWEjb-27" value="load balancer" style="rounded=0;whiteSpace=wrap;html=1;" vertex="1" parent="1">
          <mxGeometry x="670" y="240" width="120" height="60" as="geometry" />
        </mxCell>
        <mxCell id="uyTtBoazdgsakhpWWEjb-36" style="edgeStyle=orthogonalEdgeStyle;rounded=0;orthogonalLoop=1;jettySize=auto;html=1;exitX=0.5;exitY=1;exitDx=0;exitDy=0;entryX=0.5;entryY=0;entryDx=0;entryDy=0;entryPerimeter=0;" edge="1" parent="1" source="uyTtBoazdgsakhpWWEjb-4" target="uyTtBoazdgsakhpWWEjb-10">
          <mxGeometry relative="1" as="geometry" />
        </mxCell>
        <mxCell id="uyTtBoazdgsakhpWWEjb-37" style="edgeStyle=orthogonalEdgeStyle;rounded=0;orthogonalLoop=1;jettySize=auto;html=1;exitX=0.5;exitY=1;exitDx=0;exitDy=0;entryX=0.5;entryY=0;entryDx=0;entryDy=0;entryPerimeter=0;" edge="1" parent="1" source="uyTtBoazdgsakhpWWEjb-1" target="uyTtBoazdgsakhpWWEjb-11">
          <mxGeometry relative="1" as="geometry" />
        </mxCell>
        <mxCell id="uyTtBoazdgsakhpWWEjb-39" style="edgeStyle=orthogonalEdgeStyle;rounded=0;orthogonalLoop=1;jettySize=auto;html=1;exitX=0.5;exitY=1;exitDx=0;exitDy=0;exitPerimeter=0;entryX=0.5;entryY=1;entryDx=0;entryDy=0;entryPerimeter=0;fillColor=#ffe6cc;strokeColor=#d79b00;" edge="1" parent="1" source="uyTtBoazdgsakhpWWEjb-10" target="uyTtBoazdgsakhpWWEjb-26">
          <mxGeometry relative="1" as="geometry">
            <Array as="points">
              <mxPoint x="205" y="660" />
              <mxPoint x="820" y="660" />
            </Array>
          </mxGeometry>
        </mxCell>
        <mxCell id="uyTtBoazdgsakhpWWEjb-40" style="edgeStyle=orthogonalEdgeStyle;rounded=0;orthogonalLoop=1;jettySize=auto;html=1;exitX=0.5;exitY=1;exitDx=0;exitDy=0;exitPerimeter=0;entryX=0.5;entryY=1;entryDx=0;entryDy=0;entryPerimeter=0;fillColor=#ffe6cc;strokeColor=#d79b00;" edge="1" parent="1" source="uyTtBoazdgsakhpWWEjb-10" target="uyTtBoazdgsakhpWWEjb-11">
          <mxGeometry relative="1" as="geometry">
            <Array as="points">
              <mxPoint x="205" y="660" />
              <mxPoint x="390" y="660" />
            </Array>
          </mxGeometry>
        </mxCell>
        <mxCell id="uyTtBoazdgsakhpWWEjb-41" style="edgeStyle=orthogonalEdgeStyle;rounded=0;orthogonalLoop=1;jettySize=auto;html=1;exitX=0.5;exitY=1;exitDx=0;exitDy=0;exitPerimeter=0;entryX=0.5;entryY=1;entryDx=0;entryDy=0;entryPerimeter=0;fillColor=#ffe6cc;strokeColor=#d79b00;" edge="1" parent="1" source="uyTtBoazdgsakhpWWEjb-10" target="uyTtBoazdgsakhpWWEjb-25">
          <mxGeometry relative="1" as="geometry">
            <Array as="points">
              <mxPoint x="205" y="660" />
              <mxPoint x="635" y="660" />
            </Array>
          </mxGeometry>
        </mxCell>
        <mxCell id="uyTtBoazdgsakhpWWEjb-44" style="edgeStyle=orthogonalEdgeStyle;rounded=0;orthogonalLoop=1;jettySize=auto;html=1;exitX=0.5;exitY=1;exitDx=0;exitDy=0;entryX=0.5;entryY=0;entryDx=0;entryDy=0;entryPerimeter=0;" edge="1" parent="1" source="uyTtBoazdgsakhpWWEjb-24" target="uyTtBoazdgsakhpWWEjb-25">
          <mxGeometry relative="1" as="geometry" />
        </mxCell>
        <mxCell id="uyTtBoazdgsakhpWWEjb-45" style="edgeStyle=orthogonalEdgeStyle;rounded=0;orthogonalLoop=1;jettySize=auto;html=1;exitX=0.5;exitY=1;exitDx=0;exitDy=0;entryX=0.5;entryY=0;entryDx=0;entryDy=0;entryPerimeter=0;" edge="1" parent="1" source="uyTtBoazdgsakhpWWEjb-23" target="uyTtBoazdgsakhpWWEjb-26">
          <mxGeometry relative="1" as="geometry" />
        </mxCell>
        <mxCell id="uyTtBoazdgsakhpWWEjb-46" value="main flow" style="endArrow=classic;html=1;rounded=0;fillColor=#dae8fc;strokeColor=#6c8ebf;" edge="1" parent="1">
          <mxGeometry width="50" height="50" relative="1" as="geometry">
            <mxPoint x="110" y="170" as="sourcePoint" />
            <mxPoint x="160" y="120" as="targetPoint" />
          </mxGeometry>
        </mxCell>
        <mxCell id="uyTtBoazdgsakhpWWEjb-47" value="failover" style="endArrow=classic;html=1;rounded=0;fillColor=#f8cecc;strokeColor=#b85450;" edge="1" parent="1">
          <mxGeometry width="50" height="50" relative="1" as="geometry">
            <mxPoint x="190" y="170" as="sourcePoint" />
            <mxPoint x="240" y="120" as="targetPoint" />
          </mxGeometry>
        </mxCell>
        <mxCell id="uyTtBoazdgsakhpWWEjb-48" value="data sync" style="endArrow=classic;html=1;rounded=0;fillColor=#ffe6cc;strokeColor=#d79b00;" edge="1" parent="1">
          <mxGeometry width="50" height="50" relative="1" as="geometry">
            <mxPoint x="270" y="170" as="sourcePoint" />
            <mxPoint x="320" y="120" as="targetPoint" />
          </mxGeometry>
        </mxCell>
      </root>
    </mxGraphModel>
  </diagram>
</mxfile>
